<?xml version="1.0" encoding="UTF-8" standalone="no"?>
<!-- Created with Inkscape (http://www.inkscape.org/) -->

<svg
   xmlns:dc="http://purl.org/dc/elements/1.1/"
   xmlns:cc="http://creativecommons.org/ns#"
   xmlns:rdf="http://www.w3.org/1999/02/22-rdf-syntax-ns#"
   xmlns:svg="http://www.w3.org/2000/svg"
   xmlns="http://www.w3.org/2000/svg"
   xmlns:xlink="http://www.w3.org/1999/xlink"
   xmlns:sodipodi="http://sodipodi.sourceforge.net/DTD/sodipodi-0.dtd"
   xmlns:inkscape="http://www.inkscape.org/namespaces/inkscape"
   width="1920"
   height="1080.0002"
   viewBox="0 0 507.99999 285.75007"
   version="1.1"
   id="svg8"
   inkscape:version="0.92.0 r15299"
   sodipodi:docname="background.svg"
   inkscape:export-filename="E:\Projects\CREATE\Indie Assets\BUNDLES\_Underwater Game Kit\Zip\Source files\Background\bg_1920x1080.png"
   inkscape:export-xdpi="96"
   inkscape:export-ydpi="96">
  <defs
     id="defs2">
    <linearGradient
       id="linearGradient8308"
       inkscape:collect="always">
      <stop
         id="stop8310"
         offset="0"
         style="stop-color:#57e0ff;stop-opacity:1;" />
      <stop
         id="stop8312"
         offset="1"
         style="stop-color:#57e0ff;stop-opacity:0;" />
    </linearGradient>
    <linearGradient
       inkscape:collect="always"
       xlink:href="#linearGradient8308"
       id="linearGradient4208"
       gradientUnits="userSpaceOnUse"
       gradientTransform="matrix(0.14882812,0,0,0.14882812,-310.26967,264.71597)"
       x1="508.29324"
       y1="158.09372"
       x2="553.04584"
       y2="1051.7759" />
  </defs>
  <sodipodi:namedview
     id="base"
     pagecolor="#ffffff"
     bordercolor="#666666"
     borderopacity="1.0"
     inkscape:pageopacity="0"
     inkscape:pageshadow="2"
     inkscape:zoom="0.25"
     inkscape:cx="1297.9277"
     inkscape:cy="1.1128512"
     inkscape:document-units="px"
     inkscape:current-layer="g5531"
     showgrid="false"
     inkscape:window-width="2460"
     inkscape:window-height="1411"
     inkscape:window-x="91"
     inkscape:window-y="-9"
     inkscape:window-maximized="1"
     inkscape:showpageshadow="false"
     borderlayer="true"
     units="px"
     fit-margin-top="0"
     fit-margin-left="0"
     fit-margin-right="0"
     fit-margin-bottom="0"
     inkscape:object-paths="true"
     inkscape:snap-global="false"
     inkscape:snap-page="true" />
  <metadata
     id="metadata5">
    <rdf:RDF>
      <cc:Work
         rdf:about="">
        <dc:format>image/svg+xml</dc:format>
        <dc:type
           rdf:resource="http://purl.org/dc/dcmitype/StillImage" />
        <dc:title></dc:title>
      </cc:Work>
    </rdf:RDF>
  </metadata>
  <g
     inkscape:label="Layer 1"
     inkscape:groupmode="layer"
     id="layer1"
     transform="translate(-343.20122,-267.51781)">
    <g
       id="g5531">
      <g
         id="g4418"
         transform="matrix(0.999995,0,0,1,0.0017162,0)"
         inkscape:export-filename="E:\Projects\CREATE\Indie Assets\BUNDLES\_Underwater Game Kit\Zip\Background\bg_6000x3375.png"
         inkscape:export-xdpi="300"
         inkscape:export-ydpi="300">
        <path
           inkscape:export-ydpi="300"
           inkscape:export-xdpi="300"
           inkscape:export-filename="E:\Projects\CREATE\Indie Assets\BUNDLES\_Underwater Game Kit\Zip\Source files\Background\PNG-Parallax\bg_6000x3375.png"
           style="fill:#3ad6ff;fill-opacity:1;stroke:none;stroke-width:0.26458332"
           d="m 851.20376,267.51788 v 285.75 L 343.20377,552.97571 V 267.51788 Z"
           id="path4188"
           inkscape:connector-curvature="0"
           sodipodi:nodetypes="ccccc" />
        <g
           inkscape:export-ydpi="300"
           inkscape:export-xdpi="300"
           inkscape:export-filename="E:\Projects\CREATE\Indie Assets\BUNDLES\_Underwater Game Kit\Zip\Source files\Background\PNG-Parallax\bg_6000x3375.png"
           transform="translate(-0.0018601,-5.5147306e-6)"
           id="g4202">
          <path
             style="fill:none;fill-opacity:1;stroke:none;stroke-width:0.26458332"
             d="m 851.20376,267.51788 v 285.75 L 343.20377,552.97571 V 267.51788 Z"
             id="path4273"
             inkscape:connector-curvature="0"
             sodipodi:nodetypes="ccccc" />
          <g
             id="g4194">
            <path
               sodipodi:nodetypes="ccccczsccccsccccsc"
               inkscape:connector-curvature="0"
               id="path4245"
               d="m 360.26179,482.74136 c -5.46843,-5.3e-4 -11.15539,0.41278 -17.05787,1.37253 v 50.68992 h 508.00077 l -7.7e-4,-50.68992 c -9.82527,-0.15247 -31.25421,-0.63633 -49.59783,5.30385 -18.34362,5.94018 -32.02937,10.2654 -44.76608,9.62547 -16.4279,-0.82539 -41.68627,-16.298 -75.10447,-16.30185 -5.46843,-5.3e-4 -11.15539,0.41278 -17.05787,1.37253 0,0.004 -0.003,0.007 -0.003,0.0108 v -0.0108 c -26.96318,3.94989 -50.16933,15.85393 -68.57205,14.92932 -16.42789,-0.82539 -41.68627,-16.29799 -75.10445,-16.30185 -5.46844,-5.3e-4 -11.1554,0.41278 -17.05788,1.37253 -7.9e-4,0.003 -10e-4,0.005 -0.002,0.008 v -0.008 c -26.96312,3.94988 -50.16932,15.85393 -68.57204,14.92932 -16.42789,-0.8254 -41.68626,-16.298 -75.10446,-16.30185 z"
               style="color:#000000;display:inline;overflow:visible;visibility:visible;fill:#00afc4;fill-opacity:1;fill-rule:nonzero;stroke:none;stroke-width:0;marker:none;enable-background:accumulate" />
            <path
               sodipodi:nodetypes="cccccsccsccscc"
               inkscape:connector-curvature="0"
               id="path4247"
               d="m 343.20392,496.73121 v 56.2436 l 507.99984,0.29307 9.3e-4,-60.98789 c -11.07437,0.56739 -20.34051,2.89632 -33.2531,5.01506 -12.9126,2.11874 -35.4456,8.43935 -55.16894,9.76233 -21.71885,1.45685 -47.02883,-14.51921 -63.98665,-15.03594 -16.95782,-0.51672 -27.81379,2.91092 -41.15479,5.15203 -13.341,2.24112 -35.8727,8.561 -55.59504,9.88391 -21.71884,1.45685 -46.47631,-13.92792 -63.43412,-14.44464 -16.95781,-0.51672 -28.36633,2.31961 -41.70616,4.56033 -13.33984,2.24072 -35.87285,8.56133 -55.59619,9.88431 -21.71885,1.45685 -45.91502,-15.61171 -62.87316,-16.12879 -16.95814,-0.51708 -28.92712,4.00253 -35.23262,5.80262 z"
               style="fill:#dcbe72;fill-opacity:1;stroke:none;stroke-width:0.14882812" />
            <path
               transform="matrix(0.26458333,0,0,0.26458333,343.20237,267.51781)"
               inkscape:connector-curvature="0"
               id="path4249"
               d="m 120.62891,848.38281 c -1.8302,-0.008 -3.63921,-0.002 -5.44922,0.0195 -38.367763,0.43646 -72.005907,7.04267 -95.642581,13.02539 -0.135307,0.52007 -0.252916,1.05233 -0.351562,1.58204 -5.265714,28.22029 43.130095,57.52907 108.087893,65.46093 64.95776,7.93176 121.87701,-8.51794 127.14258,-36.73828 0.24189,-1.29585 0.3491,-2.60509 0.36914,-3.90234 -44.73888,-17.98273 -86.86833,-37.33768 -117.42188,-38.9707 -5.65228,-0.30199 -11.24374,-0.4519 -16.73437,-0.47461 z m 607.50781,0 c -1.8302,-0.008 -3.6392,-0.002 -5.44922,0.0195 -38.36776,0.43646 -72.0059,7.04267 -95.64258,13.02539 -0.13531,0.52007 -0.25291,1.05233 -0.35156,1.58204 -5.26571,28.22029 43.13009,57.52907 108.08789,65.46093 64.95776,7.93176 121.87702,-8.51794 127.14258,-36.73828 0.24189,-1.29585 0.34911,-2.60509 0.36914,-3.90234 -44.73887,-17.98273 -86.86833,-37.33768 -117.42188,-38.9707 -5.65228,-0.30199 -11.24374,-0.4519 -16.73437,-0.47461 z m 607.50778,0 c -1.8302,-0.008 -3.6392,-0.002 -5.4492,0.0195 -38.3677,0.43646 -72.0059,7.04267 -95.6426,13.02539 -0.1353,0.52007 -0.2529,1.05233 -0.3515,1.58204 -5.2657,28.22029 43.1301,57.52907 108.0879,65.46093 64.9577,7.93176 121.877,-8.51794 127.1425,-36.73828 0.2419,-1.29585 0.3491,-2.60509 0.3692,-3.90234 -44.7389,-17.98273 -86.8683,-37.33768 -117.4219,-38.9707 -5.6523,-0.30199 -11.2437,-0.4519 -16.7344,-0.47461 z m -760.18161,23.74805 c -54.55181,11.54846 -115.3104,20.46215 -168.64648,29.74414 12.0209,20.46883 53.73029,46.93459 92.48047,44.34766 47.34001,-3.16033 84.17946,-28.76001 82.2832,-57.16407 -0.40426,-6.05605 -2.55283,-11.74558 -6.11719,-16.92773 z m 607.50781,0 c -54.5518,11.54846 -115.3104,20.46215 -168.6465,29.74414 12.0209,20.46883 53.7303,46.93459 92.4805,44.34766 47.34,-3.16033 84.1795,-28.76001 82.2832,-57.16407 -0.4043,-6.05605 -2.5528,-11.74558 -6.1172,-16.92773 z m 607.5078,0 c -54.5518,11.54846 -115.3104,20.46215 -168.6465,29.74414 12.0209,20.46883 53.7303,46.93459 92.4805,44.34766 47.34,-3.16033 84.1795,-28.76001 82.2832,-57.16407 -0.4043,-6.05605 -2.5528,-11.74558 -6.1172,-16.92773 z M 265.44727,914.35352 a 26.307193,14.538186 0 0 0 -26.30665,14.5371 26.307193,14.538186 0 0 0 26.30665,14.53907 26.307193,14.538186 0 0 0 26.30664,-14.53907 26.307193,14.538186 0 0 0 -26.30664,-14.5371 z m 607.50781,0 a 26.307193,14.538186 0 0 0 -26.30664,14.5371 26.307193,14.538186 0 0 0 26.30664,14.53907 26.307193,14.538186 0 0 0 26.30664,-14.53907 26.307193,14.538186 0 0 0 -26.30664,-14.5371 z m 607.50782,0 a 26.307193,14.538186 0 0 0 -26.3067,14.5371 26.307193,14.538186 0 0 0 26.3067,14.53907 26.307193,14.538186 0 0 0 26.3066,-14.53907 26.307193,14.538186 0 0 0 -26.3066,-14.5371 z M 307.74023,940.78711 a 16.74094,9.2515723 0 0 0 -16.74023,9.25 16.74094,9.2515723 0 0 0 16.74023,9.25195 16.74094,9.2515723 0 0 0 16.74024,-9.25195 16.74094,9.2515723 0 0 0 -16.74024,-9.25 z m 607.50782,0 a 16.74094,9.2515723 0 0 0 -16.74024,9.25 16.74094,9.2515723 0 0 0 16.74024,9.25195 16.74094,9.2515723 0 0 0 16.74023,-9.25195 16.74094,9.2515723 0 0 0 -16.74023,-9.25 z m 607.50785,0 a 16.74094,9.2515723 0 0 0 -16.7403,9.25 16.74094,9.2515723 0 0 0 16.7403,9.25195 16.74094,9.2515723 0 0 0 16.7402,-9.25195 16.74094,9.2515723 0 0 0 -16.7402,-9.25 z"
               style="color:#000000;display:inline;overflow:visible;visibility:visible;fill:#f2e18c;fill-opacity:1;fill-rule:nonzero;stroke:none;stroke-width:0;marker:none;enable-background:accumulate" />
            <path
               sodipodi:nodetypes="cccszcszcszcczsccsccczcscccscccc"
               inkscape:connector-curvature="0"
               id="path4265"
               d="m 343.20444,490.8065 v 7.84139 c 7.10649,-1.25052 19.69083,-5.59181 35.64278,-4.73925 15.95195,0.85258 40.81413,16.28797 62.37914,14.54743 22.17402,-1.78969 52.59652,-8.61161 59.43275,-9.52209 6.83623,-0.91049 22.97253,-5.8779 38.92448,-5.02534 15.95195,0.85258 40.81413,16.28797 62.37914,14.54743 22.17402,-1.78969 42.48061,-7.41504 56.15128,-9.23687 13.67067,-1.82183 26.25502,-6.16312 42.20696,-5.31056 15.95197,0.85258 40.81415,16.28797 62.37914,14.54743 22.17402,-1.78969 39.03644,-5.20825 53.05207,-8.35607 14.01564,-3.14782 24.83268,-3.55634 35.45226,-1.45211 v -7.84139 c -9.81874,-1.01345 -21.71565,0.0703 -27.73674,0.88106 -6.02109,0.81073 -13.9855,2.45907 -21.8802,4.67534 -12.8227,3.59971 -25.46152,7.47613 -37.62442,8.29699 -21.7601,1.46861 -50.00199,-15.06313 -62.95689,-17.09508 -2.83393,-0.44447 -5.79644,-0.61502 -8.78086,-0.59531 -10.65877,0.0704 -21.5573,2.58155 -27.54715,3.83697 0,0.002 6e-5,0.004 -0.003,0.006 v -0.006 c -20.90439,3.2246 -40.74374,12.45599 -61.44948,13.85342 -20.70574,1.39743 -50.00196,-15.06313 -62.95688,-17.09508 -2.83391,-0.44447 -5.79643,-0.61502 -8.78086,-0.59531 -10.65875,0.0704 -21.5573,2.58155 -27.54715,3.83697 -8e-4,0.002 -10e-4,0.003 -0.002,0.005 v -0.005 c -9.44941,1.45762 -18.89664,4.15715 -28.22793,6.8005 -11.31179,3.20437 -22.45319,6.32617 -33.22155,7.05292 -21.76011,1.46861 -50.00196,-15.06313 -62.95688,-17.09508 -2.83391,-0.44447 -5.79643,-0.61502 -12.61802,-0.56995 -6.82159,0.0451 -17.72014,2.55622 -23.70999,3.81164 z"
               style="fill:#fef59a;fill-opacity:1;stroke:none;stroke-width:0.14882812" />
          </g>
        </g>
        <g
           inkscape:export-ydpi="300"
           inkscape:export-xdpi="300"
           inkscape:export-filename="E:\Projects\CREATE\Indie Assets\BUNDLES\_Underwater Game Kit\Zip\Source files\Background\PNG-Parallax\bg_6000x3375.png"
           transform="translate(-6.3509802e-4,-5.5147306e-6)"
           id="g4186">
          <path
             sodipodi:nodetypes="ccccc"
             inkscape:connector-curvature="0"
             id="path4178"
             d="m 851.20376,267.51788 v 285.75 L 343.20377,552.97571 V 267.51788 Z"
             style="fill:none;fill-opacity:1;stroke:none;stroke-width:0.26458332" />
          <g
             id="g4176">
            <path
               sodipodi:nodetypes="cccccccccccccccazsccccsccccsccccc"
               inkscape:connector-curvature="0"
               id="path4251"
               d="m 364.19075,518.68491 c -6.07217,-0.0134 -13.24731,0.31789 -20.98683,1.11052 v 33.17938 l 0.82786,0.003 159.91116,0.092 c 10e-4,-0.031 0.002,-0.0622 0.002,-0.0935 l 74.84194,0.13642 85.88779,0.0496 v -0.46302 c 0,0.0923 0.003,0.18478 0.003,0.27699 l 148.8576,0.2713 11.8773,0.007 c 0,-0.0937 0.005,-0.18479 0.006,-0.27803 l 25.78552,0.047 -1.7e-4,-33.22814 c -1.47553,-0.18696 -6.65055,-0.44528 -9.9814,-0.50979 -6.30956,-0.12219 -9.79975,-0.002 -18.9308,0.2329 -9.13106,0.23443 -16.31215,0.91446 -24.80736,2.44236 -22.2771,4.00663 -41.69048,11.91394 -48.01659,12.2152 -8.7385,0.41616 -27.58995,-12.86636 -54.18172,-15.11844 -2.73272,-0.23145 -5.97873,-0.36395 -9.62212,-0.37207 -6.0724,-0.0135 -13.24796,0.31784 -25.0562,0.4775 -11.80823,0.15966 -26.31442,2.89427 -38.84017,6.08903 -15.63567,3.98795 -28.18541,8.69289 -33.03718,8.92394 -8.73852,0.41616 -27.58994,-12.86636 -54.1817,-15.11844 -2.73271,-0.23145 -5.97874,-0.36395 -9.62216,-0.37207 -6.07239,-0.0135 -13.24792,0.31785 -24.43457,0.49485 -11.18666,0.177 -24.38495,2.41986 -36.10957,5.24076 -17.17917,4.13326 -31.19457,9.50752 -36.38837,9.75486 -8.73851,0.41616 -27.58994,-12.86636 -54.1817,-15.11844 -2.73245,-0.23142 -5.97812,-0.36393 -9.62112,-0.37207 h -5.3e-4 z"
               style="fill:#db9f50;fill-opacity:1;stroke:none;stroke-width:0.14882812" />
            <path
               sodipodi:nodetypes="cscccczcszcscc"
               inkscape:connector-curvature="0"
               id="path4253"
               d="m 429.29685,540.20607 c 0,0 -37.06527,-13.08742 -56.41877,-15.49208 -9.81775,-1.21984 -23.80101,-2.09482 -29.67416,0.61547 l -0.002,27.93841 h 508 l 10e-4,-28.99206 c -9.2751,-0.93972 -32.00482,-2.3129 -49.02329,-0.14465 -17.01848,2.16825 -51.40983,16.07495 -51.40983,16.07495 0,0 -37.06527,-13.08742 -56.41878,-15.49208 -9.81855,-1.21994 -29.49955,-2.12859 -47.18053,0.0373 -17.68099,2.16586 -57.13808,15.45478 -57.13808,15.45478 0,0 -37.06527,-13.08741 -56.41878,-15.49207 -9.76968,-1.21387 -20.19998,-1.61722 -41.66296,-1.47429 -21.46299,0.14293 -62.65382,16.96636 -62.65382,16.96636 z"
               style="fill:#f2e18c;fill-opacity:1;stroke:none;stroke-width:0.14882812" />
            <path
               sodipodi:nodetypes="cccscccccccccssccccccccscccccccccccccccccccccccccc"
               inkscape:connector-curvature="0"
               id="path4255"
               transform="matrix(0.26458333,0,0,0.26458333,343.20237,267.51781)"
               d="m 1777.8516,966.15039 c -82.5317,0.68882 -153.4164,40.67401 -187.584,51.85351 0.1689,0.6076 0.3489,1.2136 0.5683,1.8164 9.4817,26.0229 72.3186,33.1922 128.7149,21.3652 56.3963,-11.827 85.007,-38.1804 75.5254,-64.20308 -1.426,-3.91355 -3.8516,-7.4898 -7.125,-10.7168 -0.2895,-0.0113 -0.5798,-0.018 -0.8692,-0.0293 -3.0895,-0.0858 -6.1716,-0.11126 -9.2304,-0.0859 z m -1223.49027,1.04883 v 0.002 c -82.53166,0.68882 -153.41638,40.67398 -187.58399,51.85348 0.16895,0.6075 0.34889,1.2136 0.56836,1.8164 9.48163,26.0229 72.31855,33.1923 128.71485,21.3653 56.39629,-11.827 85.00697,-38.1805 75.52539,-64.20315 -1.42594,-3.91355 -3.85155,-7.4898 -7.125,-10.71679 -0.28951,-0.0113 -0.57974,-0.018 -0.86914,-0.0293 -3.0895,-0.0858 -6.17166,-0.11321 -9.23047,-0.0879 z m 608.21487,0.35351 v 0.002 c -82.5317,0.68882 -153.4164,40.67397 -187.58401,51.85347 0.16894,0.6076 0.34888,1.2136 0.56836,1.8164 9.48162,26.0229 72.31855,33.1922 128.71485,21.3652 56.3963,-11.827 85.007,-38.1804 75.5254,-64.20304 -1.426,-3.91355 -3.8516,-7.4898 -7.125,-10.7168 -0.2895,-0.0113 -0.5798,-0.018 -0.8692,-0.0293 -3.0895,-0.0858 -6.1716,-0.11359 -9.2304,-0.0879 z M 64.484375,968.50977 c -17.791786,0.10885 -37.001287,1.33176 -56.4785156,7.85742 -2.1432189,38.43571 46.8175116,77.82571 114.0644506,90.12301 71.13181,13.0079 135.7759,-9.2184 144.4043,-49.6582 0.0949,-0.4449 0.18279,-0.8903 0.26367,-1.3359 -47.23071,-19.8646 -111.7802,-47.20114 -175.974608,-46.84571 -8.271005,0.0457 -17.087146,-0.19694 -26.279297,-0.14062 z m 607.507815,0 c -17.79179,0.10885 -37.00129,1.33176 -56.47852,7.85742 -2.14322,38.43571 46.81751,77.82571 114.06445,90.12301 71.13181,13.0079 135.77591,-9.2184 144.4043,-49.6582 0.0949,-0.4449 0.18279,-0.8903 0.26367,-1.3359 -47.23071,-19.8646 -111.7802,-47.20114 -175.97461,-46.84571 -8.271,0.0457 -17.08714,-0.19694 -26.27929,-0.14062 z m 607.50781,0 c -17.7918,0.10885 -43.3653,-2.91088 -62.8425,3.61478 -2.1432,38.43575 53.1815,82.06835 120.4284,94.36565 71.1318,13.0079 135.7759,-9.2184 144.4043,-49.6582 0.095,-0.4449 0.1828,-0.8903 0.2637,-1.3359 -47.2307,-19.8646 -111.7802,-47.20114 -175.9746,-46.84571 -8.271,0.0457 -17.0871,-0.19694 -26.2793,-0.14062 z"
               style="color:#000000;display:inline;overflow:visible;visibility:visible;fill:#fef59a;fill-opacity:1;fill-rule:nonzero;stroke:none;stroke-width:0;marker:none;enable-background:accumulate" />
            <path
               sodipodi:nodetypes="sscccccccccsacccacczsscascscs"
               inkscape:connector-curvature="0"
               id="path4261"
               d="m 457.03246,528.61996 c -14.82663,4.33114 -26.45448,9.24734 -29.23525,9.21674 -5.4714,-0.0602 -33.53731,-12.86529 -54.51864,-14.5805 -8.02145,-0.65574 -21.4063,-0.88374 -30.07465,-0.55397 v 3.22771 c 8.94857,-0.88912 22.08832,-0.49922 33.3127,0.8847 18.70611,2.30634 45.52575,13.64244 52.13531,13.75782 6.60956,0.11539 30.36017,-10.43786 49.66932,-13.38213 8.27235,-1.26136 17.05177,-0.92459 25.90891,-1.09057 8.85714,-0.16597 21.79846,-0.66904 33.02282,0.71488 18.70614,2.30634 45.52576,13.64244 52.13532,13.75782 6.60956,0.11539 30.36018,-10.43787 49.66934,-13.38213 8.27233,-1.26137 15.92975,-1.83633 23.93362,-1.98354 11.6767,-0.21476 23.77475,0.22393 34.99912,1.60785 18.70612,2.30634 45.52577,13.64244 52.13532,13.75782 6.60956,0.11539 30.36015,-10.43786 49.66931,-13.38213 8.27233,-1.26136 17.25526,-1.53788 25.90852,-1.74667 8.4992,-0.20507 16.28797,-0.24856 25.50039,0.48628 v -3.22771 c -8.51819,-0.43067 -16.65293,-0.83765 -29.39061,-0.95539 -12.73767,-0.11774 -24.31132,2.04509 -33.37226,4.21943 -19.36147,4.64616 -35.79236,11.9076 -39.17008,11.87043 -5.4714,-0.0602 -33.53732,-12.86529 -54.51864,-14.5805 -8.02145,-0.65574 -21.06604,-1.82502 -31.60621,-1.45707 -11.77029,0.4109 -23.18853,1.25161 -35.09551,4.08441 -19.51185,4.64207 -36.11916,11.99056 -39.51703,11.95316 -5.4714,-0.0602 -33.53732,-12.86529 -54.51864,-14.5805 -8.02145,-0.65575 -14.06947,-1.92057 -30.59547,-2.23917 -16.52599,-0.31859 -34.77598,4.21112 -46.38701,7.60293 z"
               style="color:#000000;display:inline;overflow:visible;visibility:visible;fill:#ffffff;fill-opacity:1;stroke:none;stroke-width:0.14882812px;marker:none;enable-background:accumulate" />
          </g>
        </g>
        <g
           transform="translate(814.20849)"
           inkscape:export-ydpi="300"
           inkscape:export-xdpi="300"
           inkscape:export-filename="E:\Projects\CREATE\Indie Assets\BUNDLES\_Underwater Game Kit\Zip\Source files\Background\PNG-Parallax\bg_6000x3375.png"
           id="g4212">
          <path
             style="fill:none;fill-opacity:1;stroke:none;stroke-width:0.26458332"
             d="m 36.993871,267.51788 v 285.75 L -471.00612,552.97571 V 267.51788 Z"
             id="path4204"
             inkscape:connector-curvature="0"
             sodipodi:nodetypes="ccccc" />
          <path
             sodipodi:nodetypes="cccccccccccccccccccccccccccccccccccc"
             inkscape:connector-curvature="0"
             id="path4206"
             d="m -393.47634,267.51781 -15.13137,130.61735 28.94914,-5.02915 z m 160.73644,0 -8.022,174.77027 28.94913,-5.02915 z m 167.846101,0 -15.1319,130.61735 28.94965,-5.02915 z m -392.924861,4.69119 4.61574,150.99698 42.32713,-7.53959 z m 160.73644,0 4.61574,150.99698 42.32713,-7.53959 z m 160.73644,0 4.61574,150.99698 42.327141,-7.53959 z m -188.1389,1.47846 -51.14158,144.08164 27.40711,13.44104 z m 166.72316,0 -51.14107,144.08164 27.40659,13.44104 z m 172.335721,0 -51.14105,144.08164 27.4071001,13.44104 z"
             style="fill:url(#linearGradient4208);fill-opacity:1;stroke:none;stroke-width:0.14882812" />
        </g>
        <g
           inkscape:export-ydpi="96"
           inkscape:export-xdpi="96"
           inkscape:export-filename="E:\Projects\CREATE\Indie Assets\BUNDLES\_Underwater Game Kit\Zip\Background\PNG-Parallax\1920x1080\3-foam.png"
           transform="translate(-2.4009802e-4,721.78329)"
           id="g4220">
          <path
             style="fill:none;fill-opacity:1;stroke:none;stroke-width:0.26458332"
             d="m 851.20376,-454.26545 v 285.75 l -507.99999,-0.29217 v -285.45783 z"
             id="path4214"
             inkscape:connector-curvature="0"
             sodipodi:nodetypes="ccccc" />
          <path
             style="fill:#86efff;fill-opacity:1;stroke:none;stroke-width:0.14882812"
             d="m 483.14641,-445.21884 c -9.18467,2.64504 -14.85234,6.89326 -22.82652,7.22747 -6.63961,0.27829 -13.40106,-6.66786 -19.44532,-4.40439 -8.4201,3.15318 -19.97401,8.70681 -27.00766,7.74837 -6.32826,-0.86232 -17.95393,-7.28043 -27.46344,-8.1902 -14.28193,-1.36634 -29.48934,-5.42651 -43.20201,-1.40361 v 7.73341 c 13.78428,-2.54368 29.32151,-6.02808 47.15526,0.46513 17.69663,6.44328 32.52875,4.2826 48.87144,3.97651 7.93414,-0.1486 15.7124,-2.47315 23.64042,-2.81844 4.95685,-0.21589 10.53127,1.55264 14.87816,0.46974 2.45133,-0.61067 4.3199,1.8606 11.12955,2.31614 4.73532,0.31679 7.10929,3.47336 15.05954,4.04626 v -0.0165 c 8e-4,0.006 10e-4,0.011 0.002,0.0165 13.78428,-2.54368 29.32152,-14.48342 47.15526,-7.99021 17.69663,6.44328 32.52875,4.2826 48.87144,3.97651 7.93413,-0.1486 15.7124,-2.47315 23.6404,-2.81844 4.95686,-0.21589 10.53137,1.55264 14.87816,0.46974 2.45139,-0.61067 4.31993,1.8606 11.12956,2.31614 4.73533,0.31679 7.1093,3.47336 15.05956,4.04626 v -0.009 c 0,0.003 0,0.006 0.003,0.009 13.78429,-2.54368 29.3215,-14.48342 47.15526,-7.99021 17.69663,6.44328 32.52875,4.2826 48.87143,3.97651 7.93414,-0.1486 15.71241,-2.47315 23.64041,-2.81844 4.95686,-0.21589 10.53129,1.55264 14.87818,0.46974 2.45134,-0.61067 4.31991,1.8606 11.12954,2.31614 4.73533,0.31679 7.1093,3.47336 15.05956,4.04626 v -0.0165 c 0,0.006 -6e-5,0.011 0.003,0.0165 7.9746,-1.47159 16.53741,-6.08314 25.79069,-8.45581 v -7.73286 c -8.78652,-0.39793 -17.55799,-0.049 -25.79069,2.36626 0,0.003 8e-5,0.005 -0.003,0.008 v -0.008 c -8.93541,2.17331 -11.03739,-3.34398 -20.78943,-3.34398 -9.18466,2.64504 -14.85233,6.89326 -22.82653,7.22747 -6.63961,0.27829 -13.40106,-6.66786 -19.44531,-4.40439 -8.4201,3.15318 -19.974,8.70681 -27.00766,7.74837 -6.32825,-0.86232 -17.95394,-7.28043 -27.46343,-8.1902 -14.28195,-1.36634 -29.48935,-3.06017 -43.20202,0.96273 0,0.008 -0.003,0.0155 -0.003,0.0233 v -0.0233 c -8.93567,2.17331 -11.03744,-3.34398 -20.78948,-3.34398 -9.18472,2.64504 -14.85233,6.89326 -22.82653,7.22747 -6.63961,0.27829 -13.40105,-6.66786 -19.44531,-4.40439 -8.4201,3.15318 -19.974,8.70681 -27.00765,7.74837 -6.32826,-0.86232 -17.95394,-7.28043 -27.46344,-8.1902 -14.28194,-1.36634 -29.48935,-3.06017 -43.20202,0.96273 -7.9e-4,0.003 -10e-4,0.005 -0.002,0.008 v -0.008 c -8.93533,2.17331 -11.03731,-3.34398 -20.78937,-3.34398 z m -16.04347,18.62935 c -3.30043,-0.006 -6.75152,0.43834 -10.71769,1.42989 -3.60649,3.4169 -10.47781,0.0309 -13.38988,3.52537 -2.47274,2.34408 -4.41455,3.05097 -7.98556,3.05097 -3.42461,-1.90438 -7.23961,0.5388 -11.27373,-0.46974 -5.52398,-1.99929 -8.33552,1.87896 -14.55725,1.87896 -5.01526,-0.0259 -8.82625,1.87896 -13.85962,1.87896 -6.47958,-0.45934 -0.70394,-2.5504 1.40922,-3.75792 2.53937,-0.91241 1.54741,-1.9453 1.40921,-3.05097 -4.45311,-0.30946 -7.55963,-3.24098 -11.50627,-4.22765 -3.99001,-0.33673 -7.08206,1.45953 -11.04119,0.46974 -7.31666,-0.28244 -10.46732,2.65514 -15.97112,4.22765 -5.7984,1.23592 -8.14066,0.65829 -11.44219,-2.64325 -1.5418,-1.03655 -2.85281,-1.14194 -4.97541,-0.84344 l 0.002,3.25252 c 0,0 3.31374,0.53799 5.5888,2.37024 1.37375,1.10636 2.13762,3.54621 2.22118,4.177 0.22194,1.67542 -7.80998,5.05519 -7.80998,5.05519 l -1.8e-4,6.13812 c 0.92048,0.0728 1.29415,0.28867 1.8455,0.42161 1.53087,0.36912 4.58823,1.69242 6.40437,1.64497 6.35069,-0.16593 6.45825,-4.08628 19.67684,-1.72289 11.96389,2.13904 5.85512,7.52462 13.31081,9.29711 7.45571,1.7725 12.46086,-0.33487 18.80816,-0.33487 4.15473,-0.1498 9.87638,1.41596 6.63215,4.66018 -1.6992,0.92202 -3.32158,1.73723 -4.69739,2.3487 -5.89669,-1.91351 -10.33179,1.52603 -15.50138,2.81843 -6.93106,1.24803 -12.44904,0.46891 -18.08261,-0.93948 -3.39753,-5.12654 -9.99334,-4.61282 -16.67806,-3.75791 -4.38487,0.56078 -8.30268,1.2886 -11.71839,1.18029 v 9.92911 c 5.17859,-0.43304 10.47821,-0.98737 15.68146,-0.46457 9.09064,0.91339 18.93498,1.9544 30.17439,1.9544 4.60438,0.23772 10.32748,-1.40286 13.7759,-2.26497 3.63121,-3.89986 17.51817,-11.57529 23.24974,-4.69739 6.82606,3.90419 14.95783,2.65507 20.19877,-2.58589 9.12106,0.79209 17.97112,1.0107 26.77511,-1.40922 -0.0895,1.49957 -11.37834,13.17609 -21.17545,9.34362 -9.79711,-3.83246 -18.02299,-0.8972 -25.00778,2.59519 12.66651,3.19027 21.30139,3.455 33.50028,0.74414 9.49476,-3.06572 21.5926,-9.81208 29.55169,-12.7248 4.73913,1.2007 9.04856,0.49671 14.00844,0.31625 v -0.007 c 8e-4,0.002 10e-4,0.005 0.002,0.007 5.17859,-0.43304 10.70186,4.38587 15.94787,7.00888 9.8788,2.70709 18.6704,3.67419 29.9098,3.67419 4.60439,0.23772 10.32748,-1.40286 13.7759,-2.26497 3.63121,-3.89986 17.51816,-11.57529 23.24975,-4.69739 6.82606,3.90419 14.95782,2.65507 20.19876,-2.58589 9.12107,0.79209 17.97112,1.0107 26.7751,-1.40922 -0.0896,1.49957 -11.37832,13.17609 -21.17545,9.34362 -9.79711,-3.83246 -18.02297,-0.8972 -25.00777,2.59519 12.66651,3.19027 21.30136,3.455 33.50029,0.74414 9.49476,-3.06572 21.59259,-9.81208 29.55168,-12.7248 4.73911,1.2007 9.04854,0.49671 14.00845,0.31625 v -0.003 c 0,7.9e-4 0,0.002 0.003,0.003 5.17859,-0.43304 10.70184,4.38587 15.94787,7.00888 9.8788,2.70709 18.67037,3.67419 29.9098,3.67419 4.60438,0.23772 10.32748,-1.40286 13.7759,-2.26497 3.63122,-3.89986 17.51819,-11.57529 23.24973,-4.69739 6.82606,3.90419 14.95785,2.65507 20.19877,-2.58589 9.12106,0.79209 17.97113,1.0107 26.77511,-1.40922 -0.0895,1.49957 -11.37832,13.17609 -21.17545,9.34362 -9.79709,-3.83246 -18.02299,-0.8972 -25.00778,2.59519 12.66653,3.19027 21.30139,3.455 33.5003,0.74414 9.49476,-3.06572 21.59259,-9.81208 29.55168,-12.7248 4.73911,1.2007 9.04854,0.49671 14.00845,0.31625 v -0.007 c 0,0.002 -6e-5,0.005 0.003,0.007 5.17859,-0.43304 10.70184,4.38587 15.94787,7.00888 3.36026,0.92082 6.595,1.63577 9.84282,2.18436 v -9.92911 c -3.63368,-2.31071 -8.82433,-1.85122 -14.07047,-1.18029 -4.38488,0.56078 -8.3045,-3.18451 -11.72022,-3.29282 0,0.002 8e-5,0.004 -0.003,0.006 v -0.006 c -4.82706,1.0472 -10.16625,-1.88724 -14.90607,-0.70228 -6.02888,2.45365 -7.7828,-2.82504 -11.98068,-3.75791 -7.16645,-1.6872 -12.08458,1.49798 -18.31515,3.05563 -4.8574,7.03735 -9.84633,0 -15.26884,0 -2.69007,-1.02366 -5.00213,-0.31737 -6.57635,0.46973 -4.334,7.90688 -11.57538,1.50354 -13.85496,-3.05562 -4.03375,-1.94475 -9.25486,-2.74847 -13.15267,-4.69739 -10.44538,-0.58865 -30.43174,6.22185 -26.77512,-6.57634 1.13332,-2.07882 -2.64832,-3.10277 -5.7299,-3.08354 -1.20583,0.008 -2.71552,-0.56649 -4.77128,0.0904 -7.56576,2.41785 -14.66144,2.40004 -20.81062,0.9927 2.81221,-3.70928 5.8266,-7.83003 9.23407,-8.8036 5.22917,-3.1308 10.17513,-3.28817 17.61754,-3.28817 0.61146,-0.10416 1.2296,-0.15631 1.84537,-0.16071 4.31027,-0.0308 8.51434,2.27035 9.66091,5.32784 -2.65533,2.32373 -7.10874,0.9262 -7.98557,3.9951 3.46757,2.50244 6.29483,3.52072 11.04119,3.52072 4.25879,0.56007 7.8245,-0.48878 11.50628,-1.40922 6.84453,-1.13144 20.6434,-8.38868 26.06818,-1.87895 6.07745,3.6483 11.20759,2.6129 16.2083,0.46974 3.58087,-1.51389 7.31152,-2.47352 11.03653,-1.40922 1.54242,1.75544 1.87897,3.01941 1.87897,4.22765 -2.02009,1.38389 -3.60064,1.72166 -5.16713,3.28817 3.96079,2.34405 7.96867,0.24095 12.2132,-0.70228 3.24254,-0.98565 3.57237,1.49041 6.57635,2.34869 4.61044,3.36755 7.28003,-0.23719 12.21322,-0.23719 3.91869,-1.62387 7.817,-1.50948 11.97599,-0.46974 2.24086,1.47171 4.35959,1.71207 6.21824,1.27899 0.003,0.005 0.003,0 0.003,0 0.5605,0.28161 1.12094,0.36181 1.68363,0.28164 1.97958,0.58601 4.75194,1.85612 6.56809,1.80867 5.98747,-0.15644 6.43054,-3.64809 17.53897,-2.06654 v -6.13812 c -6.21086,1.39365 -12.03841,1.19738 -17.19792,0.0165 2.81218,-3.70928 5.8266,-7.83003 9.23406,-8.8036 2.60991,-1.5626 5.14946,-2.38401 7.96386,-2.81533 v -3.25303 c -3.29629,0.92327 -5.85611,2.48228 -9.37308,3.48713 -5.7984,1.23592 -8.14067,0.65829 -11.4422,-2.64325 -1.5418,-1.03655 -2.85281,0.19139 -4.97541,0.48989 0,0.005 8e-5,0.009 -0.003,0.0134 v -0.0134 c -6.67253,-0.76895 -15.47384,3.16241 -22.18936,-0.19534 -5.31792,-1.62778 -9.81983,-2.59792 -14.64355,-2.60656 -3.30042,-0.006 -6.75151,0.43834 -10.71769,1.42989 -3.60648,3.4169 -10.47779,0.0309 -13.38988,3.52537 -2.47274,2.34408 -4.41454,3.05097 -7.98554,3.05097 -3.42461,-1.90438 -7.23961,0.5388 -11.27374,-0.46974 -5.52397,-1.99928 -8.33551,1.87896 -14.55724,1.87896 -5.01526,-0.0259 -8.82627,1.87896 -13.85962,1.87896 -6.47959,-0.45934 -0.70395,-2.5504 1.4092,-3.75792 2.53936,-0.91241 1.54741,-1.9453 1.40922,-3.05097 -4.45312,-0.30946 -7.55962,-3.24098 -11.50628,-4.22765 -3.98999,-0.33673 -7.08205,1.45953 -11.04119,0.46974 -7.31666,-0.28244 -10.46732,2.65514 -15.9711,4.22765 -5.7984,1.23592 -8.14067,0.65829 -11.4422,-2.64325 -1.5418,-1.03655 -2.85281,0.19139 -4.97541,0.48989 0,0.006 -0.003,0.0114 -0.003,0.0171 v -0.0171 c -6.67253,-0.76895 -15.47384,3.16241 -22.18936,-0.19534 -5.31794,-1.62778 -9.8198,-2.59792 -14.64355,-2.60656 -3.30042,-0.006 -6.75151,0.43834 -10.71769,1.42989 -3.60649,3.4169 -10.4778,0.0309 -13.38987,3.52537 -2.47274,2.34408 -4.41455,3.05097 -7.98556,3.05097 -3.42461,-1.90438 -7.23961,0.5388 -11.27373,-0.46974 -5.52398,-1.99929 -8.33552,1.87896 -14.55725,1.87896 -5.01526,-0.0259 -8.82625,1.87896 -13.85962,1.87896 -6.47958,-0.45934 -0.70393,-2.5504 1.40922,-3.75792 2.53937,-0.91241 1.54742,-1.9453 1.40921,-3.05097 -4.45311,-0.30946 -7.55963,-3.24098 -11.50627,-4.22765 -3.99001,-0.33673 -7.08206,1.45953 -11.04119,0.46974 -7.31666,-0.28244 -10.46731,2.65514 -15.97112,4.22765 -5.7984,1.23592 -8.14066,0.65829 -11.44219,-2.64325 -1.5418,-1.03655 -2.85281,0.19139 -4.97541,0.48989 -7.9e-4,0.005 -0.001,0.009 -0.002,0.0134 v -0.0134 c -6.67251,-0.76895 -15.47384,3.16241 -22.18934,-0.19534 -5.31794,-1.62778 -9.81984,-2.59792 -14.64355,-2.60656 z m -86.61177,4.08761 c 4.31028,-0.0308 8.51435,2.27035 9.66091,5.32784 -2.65531,2.32373 -7.10874,0.9262 -7.98556,3.9951 3.46758,2.50244 6.29484,3.52072 11.04119,3.52072 4.25879,0.56007 7.8245,-0.48878 11.50627,-1.40922 6.84456,-1.13144 20.6434,-8.38868 26.06818,-1.87895 6.07747,3.6483 11.20761,2.6129 16.20831,0.46974 3.58087,-1.51389 7.31152,-2.47352 11.03654,-1.40922 1.54241,1.75544 1.87895,3.01941 1.87895,4.22765 -2.02009,1.38389 -3.60062,1.72166 -5.16712,3.28817 3.9608,2.34405 7.96868,0.24095 12.21321,-0.70228 3.24255,-0.98565 3.57236,1.49041 6.57634,2.34869 4.61045,3.36755 7.28004,-0.23719 12.21321,-0.23719 3.91869,-1.62387 7.81701,-1.50948 11.97601,-0.46974 2.24086,1.47171 4.35957,1.71207 6.21822,1.27899 0.002,0.005 0.002,0 0.002,0 0.5605,0.28161 1.12094,0.36181 1.68362,0.28164 1.9796,0.58601 4.75193,1.85612 6.56807,1.80867 6.35069,-0.16593 6.45825,-4.08628 19.67684,-1.72289 11.96389,2.13904 5.85513,7.52462 13.31082,9.29711 7.45571,1.7725 12.46085,-0.33487 18.80815,-0.33487 4.15473,-0.1498 9.87638,1.41596 6.63215,4.66018 -1.6992,0.92202 -3.32157,1.73723 -4.69739,2.3487 -5.89669,-1.91351 -10.33178,1.52603 -15.50137,2.81843 -6.93106,1.24803 -12.44905,0.46891 -18.08262,-0.93948 -3.39753,-5.12654 -9.99333,-4.61282 -16.67805,-3.75791 -4.38488,0.56078 -8.30451,-3.18451 -11.72022,-3.29282 -7.9e-4,0.002 -0.001,0.004 -0.002,0.006 v -0.006 c -4.82706,1.0472 -10.16623,-1.88724 -14.90606,-0.70228 -6.02887,2.45365 -7.78281,-2.82504 -11.98067,-3.75791 -7.16647,-1.6872 -12.0846,1.49798 -18.31516,3.05563 -4.85739,7.03735 -9.84632,0 -15.26883,0 -2.69006,-1.02366 -5.00212,-0.31737 -6.57635,0.46973 -4.33401,7.90688 -11.57541,1.50354 -13.85496,-3.05562 -4.03375,-1.94475 -9.25487,-2.74847 -13.15269,-4.69739 -10.44538,-0.58865 -30.43174,6.22186 -26.77511,-6.57634 1.13333,-2.07882 -2.64831,-3.10277 -5.72988,-3.08354 -1.20584,0.008 -2.71554,-0.56649 -4.77129,0.0904 -7.56578,2.41785 -14.66145,2.40004 -20.81061,0.9927 2.81219,-3.70928 5.82658,-7.83003 9.23406,-8.8036 5.22915,-3.13081 10.17512,-3.28817 17.61753,-3.28817 0.61147,-0.10416 1.22961,-0.15631 1.84536,-0.16071 z m 160.73593,0 c 4.31028,-0.0308 8.51486,2.27035 9.66142,5.32784 -2.6553,2.32373 -7.10873,0.9262 -7.98556,3.9951 3.46759,2.50244 6.29484,3.52072 11.04119,3.52072 4.25879,0.56007 7.82451,-0.48878 11.50628,-1.40922 6.84455,-1.13144 20.64339,-8.38868 26.06817,-1.87895 6.07747,3.6483 11.20762,2.6129 16.20832,0.46974 3.58085,-1.51389 7.3115,-2.47352 11.03652,-1.40922 1.54242,1.75544 1.87897,3.01941 1.87897,4.22765 -2.02012,1.38389 -3.60064,1.72166 -5.16713,3.28817 3.96076,2.34405 7.96867,0.24095 12.21319,-0.70228 3.24255,-0.98565 3.57238,1.49041 6.57635,2.34869 4.61045,3.36755 7.28004,-0.23719 12.2132,-0.23719 3.91869,-1.62387 7.81703,-1.50948 11.97602,-0.46974 2.24086,1.47171 4.35956,1.71207 6.21823,1.27899 v -0.0108 c 0,0.004 0,0.007 0.003,0.0108 0.56049,0.28161 1.12093,0.36181 1.68362,0.28164 1.97959,0.58601 4.75192,1.85612 6.56807,1.80867 6.35069,-0.16593 6.45824,-4.08628 19.67683,-1.72289 11.9639,2.13904 5.85512,7.52462 13.31081,9.29711 7.45572,1.7725 12.46087,-0.33487 18.80817,-0.33487 4.15473,-0.1498 9.87637,1.41596 6.63216,4.66018 -1.69921,0.92202 -3.32158,1.73723 -4.69739,2.3487 -5.89669,-1.91351 -10.33179,1.52603 -15.50138,2.81843 -6.93108,1.24803 -12.44907,0.46891 -18.08263,-0.93948 -3.39752,-5.12654 -9.99334,-4.61282 -16.67804,-3.75791 -4.38489,0.56078 -8.3045,-3.18451 -11.72022,-3.29282 0,0.004 -0.003,0.008 -0.003,0.0119 v -0.0119 c -4.82705,1.0472 -10.16624,-1.88724 -14.90607,-0.70228 -6.02887,2.45365 -7.78279,-2.82504 -11.98067,-3.75791 -7.16648,-1.6872 -12.08461,1.49798 -18.31515,3.05563 -4.85741,7.03735 -9.84634,0 -15.26883,0 -2.69006,-1.02366 -5.00212,-0.31737 -6.57634,0.46973 -4.334,7.90688 -11.5754,1.50354 -13.85497,-3.05562 -4.03375,-1.94475 -9.25487,-2.74847 -13.15269,-4.69739 -10.44538,-0.58865 -30.43174,6.22186 -26.77511,-6.57634 1.13333,-2.07882 -2.64831,-3.10277 -5.72988,-3.08354 -1.20584,0.008 -2.71553,-0.56649 -4.77129,0.0904 -7.56577,2.41785 -14.66145,2.40004 -20.81061,0.9927 2.81219,-3.70928 5.82658,-7.83003 9.23406,-8.8036 5.22915,-3.13081 10.17512,-3.28817 17.61753,-3.28817 0.61148,-0.10415 1.22909,-0.15632 1.84485,-0.16071 z"
             id="path4216"
             inkscape:connector-curvature="0"
             sodipodi:nodetypes="ccsssccssscccccssscccccsssccccccccccccssscccccssscccccccccccccccccccssccsccscccccsccscccccsccccccccccccsccccccccccccscccccccccsccccccccccccccccsccccccccccccccccccccccccccccccccccccccccccccccccccccccccccccccccccccccccccccccccccccscccccsccccccccccccccccccccccccccccccccccccccscccccccccccccccccccccccc" />
        </g>
      </g>
    </g>
  </g>
</svg>
